# xmcd CD database file
#
# Track frame offsets:
#	150
#	21367
#	35054
#	52903
#	67786
#	82688
#	102902
#	122008
#	138893
#	157271
#	171610
#	187130
#	202355
#	218495
#
# Disc length: 3128 seconds
#
# Revision: 2
# Processed by: cddbd v1.5.2PL0 Copyright (c) Steve Scherf et al.
# Submitted via: CDex 1.51
#
DISCID=c90c360e
DTITLE=Kaça Kabaço - Ao Vivo I
DYEAR=1900
DGENRE=Forró
TTITLE0=meu alimento
TTITLE1=virando o zoinho
TTITLE2=tareco e mariola
TTITLE3=nossa cama, nosso ninho
TTITLE4=meus querê
TTITLE5=bucho d'água
TTITLE6=coração de pedra
TTITLE7=não me deixe
TTITLE8=coragem pra falar - parceira de forró
TTITLE9=ainda amo você
TTITLE10=jovem senhor
TTITLE11=filha do sol - os dez mandamentos
TTITLE12=vida de artista - pincípio, meio e fim
TTITLE13=não vou ficar sozinho
EXTD=
EXTT0=
EXTT1=
EXTT2=
EXTT3=
EXTT4=
EXTT5=
EXTT6=
EXTT7=
EXTT8=
EXTT9=
EXTT10=
EXTT11=
EXTT12=
EXTT13=
PLAYORDER=
